<svg width="52" height="68" viewBox="0 0 52 68" fill="none" xmlns="http://www.w3.org/2000/svg">
<g id="Group 1">
<g id="Vector 1" filter="url(#filter0_d_241_72)">
<path d="M4.32967 33.517C1.52985 52.0389 17.2519 58.5539 25.4629 59.4961C31.924 56.9117 38.6543 49.7147 41.2119 46.4393C46.9192 37.0707 45.2949 26.5624 43.7694 22.4793C43.231 24.4176 41.2119 26.1585 40.2696 26.7867C42.7464 16.772 37.1737 10.2301 34.0777 8.211C36.0161 18.8718 33.2701 25.8445 31.6548 27.9982C31.1164 26.1675 27.3923 20.1461 25.5975 17.3643C20.644 10.9031 19.7646 3.09595 19.944 0C14.7751 3.55361 14.47 17.0053 14.9636 23.2869C13.0253 22.3178 12.1817 14.9862 12.0022 11.4416C4.89501 26.4098 7.06667 36.9719 9.0409 40.382C7.85636 40.2743 5.40652 35.7605 4.32967 33.517Z" fill="#16DB65"/>
<path d="M24.6553 1.61528C26.9884 3.09595 31.4125 7.99563 30.4433 15.749C28.9627 15.1657 25.7321 11.5223 24.6553 1.61528Z" fill="#16DB65"/>
</g>
<g id="Vector 2">
<path d="M6.88257 43.7451C9.60034 45.993 15.3324 50.8634 16.5183 52.362C14.5006 51.9457 9.74859 49.6395 6.88257 43.7451Z" fill="#F8F7F2"/>
<path d="M14.3681 30.2414C13.5034 29.0342 11.6998 25.8456 11.4033 22.7485C10.868 24.4969 10.7115 28.4431 14.3681 30.2414Z" fill="#F8F7F2"/>
<path d="M34.8248 30.2414C35.9366 28.9094 38.2344 25.8206 38.5309 24.1222C38.9015 25.5792 38.6791 28.8428 34.8248 30.2414Z" fill="#F8F7F2"/>
</g>
<g id="Group">
<path id="Vector" d="M39.5332 45.0213L22.5101 27.9982L16.5021 34.0062L33.5252 51.0294L39.5332 45.0213Z" fill="#F8F6F5"/>
<g id="Group_2">
<path id="Vector_2" d="M33.5251 51.0294L31.5224 53.0321L14.4993 36.009L16.502 34.0063L33.5251 51.0294Z" fill="#A5A4A4"/>
<path id="Vector_3" d="M21.8021 32.0036C21.8021 31.6125 22.119 31.2955 22.5102 31.2955C22.9013 31.2955 23.2183 31.6125 23.2183 32.0036C23.2183 32.3947 22.9013 32.7117 22.5102 32.7117C22.119 32.7117 21.8021 32.3948 21.8021 32.0036Z" fill="#16DB65"/>
</g>
<path id="Vector_4" d="M50.6319 59.2044C49.5396 60.2967 47.7576 60.2593 46.7115 59.1226L37.1133 48.6901L40.1176 45.6858L50.5501 55.284C51.6868 56.33 51.7242 58.1121 50.6319 59.2044Z" fill="#1D1D1D"/>
<g id="Group_3">
<path id="Vector_5" d="M42.4136 51.6942C42.4136 51.303 42.7306 50.9861 43.1217 50.9861C43.5129 50.9861 43.8298 51.3031 43.8298 51.6942C43.8298 52.0853 43.5128 52.4023 43.1217 52.4023C42.7306 52.4023 42.4136 52.0853 42.4136 51.6942Z" fill="#D2D5D7"/>
<path id="Vector_6" d="M46.419 55.6996C46.419 55.3084 46.736 54.9915 47.1271 54.9915C47.5182 54.9915 47.8352 55.3085 47.8352 55.6996C47.8352 56.0908 47.5182 56.4077 47.1271 56.4077C46.736 56.4077 46.419 56.0908 46.419 55.6996Z" fill="#D2D5D7"/>
</g>
</g>
</g>
<defs>
<filter id="filter0_d_241_72" x="0" y="0" width="49.2146" height="67.4961" filterUnits="userSpaceOnUse" color-interpolation-filters="sRGB">
<feFlood flood-opacity="0" result="BackgroundImageFix"/>
<feColorMatrix in="SourceAlpha" type="matrix" values="0 0 0 0 0 0 0 0 0 0 0 0 0 0 0 0 0 0 127 0" result="hardAlpha"/>
<feOffset dy="4"/>
<feGaussianBlur stdDeviation="2"/>
<feComposite in2="hardAlpha" operator="out"/>
<feColorMatrix type="matrix" values="0 0 0 0 0 0 0 0 0 0 0 0 0 0 0 0 0 0 0.25 0"/>
<feBlend mode="normal" in2="BackgroundImageFix" result="effect1_dropShadow_241_72"/>
<feBlend mode="normal" in="SourceGraphic" in2="effect1_dropShadow_241_72" result="shape"/>
</filter>
</defs>
</svg>
