<svg width="188" height="68" viewBox="0 0 188 68" fill="none" xmlns="http://www.w3.org/2000/svg">
<g filter="url(#filter0_d_241_71)">
<path d="M4.32967 33.517C1.52985 52.0389 17.2519 58.5539 25.4629 59.4961C31.924 56.9117 38.6543 49.7147 41.2119 46.4393C46.9192 37.0707 45.2949 26.5624 43.7694 22.4793C43.231 24.4176 41.2119 26.1585 40.2696 26.7867C42.7464 16.772 37.1737 10.2301 34.0777 8.211C36.0161 18.8718 33.2701 25.8445 31.6548 27.9982C31.1164 26.1675 27.3923 20.1461 25.5975 17.3643C20.644 10.9031 19.7646 3.09595 19.944 0C14.7751 3.55361 14.47 17.0053 14.9636 23.2869C13.0253 22.3178 12.1817 14.9862 12.0022 11.4416C4.89501 26.4098 7.06667 36.9719 9.0409 40.382C7.85636 40.2743 5.40652 35.7605 4.32967 33.517Z" fill="#16DB65"/>
<path d="M24.6553 1.61528C26.9884 3.09595 31.4125 7.99563 30.4433 15.749C28.9627 15.1657 25.7321 11.5223 24.6553 1.61528Z" fill="#16DB65"/>
</g>
<path d="M6.88257 43.7451C9.60034 45.993 15.3324 50.8634 16.5183 52.362C14.5006 51.9457 9.74859 49.6395 6.88257 43.7451Z" fill="#F8F7F2"/>
<path d="M14.3681 30.2414C13.5034 29.0342 11.6998 25.8456 11.4033 22.7485C10.868 24.4969 10.7115 28.4431 14.3681 30.2414Z" fill="#F8F7F2"/>
<path d="M34.8248 30.2414C35.9366 28.9094 38.2344 25.8206 38.5309 24.1222C38.9015 25.5792 38.6791 28.8428 34.8248 30.2414Z" fill="#F8F7F2"/>
<path d="M39.5332 45.0213L22.5101 27.9982L16.5021 34.0062L33.5252 51.0294L39.5332 45.0213Z" fill="#F8F6F5"/>
<path d="M33.5251 51.0294L31.5224 53.0321L14.4993 36.009L16.502 34.0063L33.5251 51.0294Z" fill="#A5A4A4"/>
<path d="M21.8021 32.0036C21.8021 31.6125 22.119 31.2955 22.5102 31.2955C22.9013 31.2955 23.2183 31.6125 23.2183 32.0036C23.2183 32.3947 22.9013 32.7117 22.5102 32.7117C22.119 32.7117 21.8021 32.3948 21.8021 32.0036Z" fill="#16DB65"/>
<path d="M50.6319 59.2044C49.5396 60.2967 47.7576 60.2593 46.7115 59.1226L37.1133 48.6901L40.1176 45.6858L50.5501 55.284C51.6868 56.33 51.7242 58.1121 50.6319 59.2044Z" fill="#1D1D1D"/>
<path d="M42.4136 51.6942C42.4136 51.303 42.7306 50.9861 43.1217 50.9861C43.5129 50.9861 43.8298 51.3031 43.8298 51.6942C43.8298 52.0853 43.5128 52.4023 43.1217 52.4023C42.7306 52.4023 42.4136 52.0853 42.4136 51.6942Z" fill="#D2D5D7"/>
<path d="M46.419 55.6996C46.419 55.3084 46.736 54.9915 47.1271 54.9915C47.5182 54.9915 47.8352 55.3085 47.8352 55.6996C47.8352 56.0908 47.5182 56.4077 47.1271 56.4077C46.736 56.4077 46.419 56.0908 46.419 55.6996Z" fill="#D2D5D7"/>
<path d="M66.4515 31.836C70.0995 31.836 71.9235 32.996 71.9235 35.316C71.9235 36.404 71.6755 37.332 71.1795 38.1C70.6835 38.852 69.7955 39.444 68.5155 39.876C67.2355 40.292 65.4595 40.5 63.1875 40.5H52.3875C52.5155 37.396 52.5795 34.492 52.5795 31.788C52.5795 29.084 52.5155 26.18 52.3875 23.076H58.0275V23.1H63.1395C65.1235 23.1 66.6835 23.268 67.8195 23.604C68.9715 23.924 69.7795 24.396 70.2435 25.02C70.7235 25.644 70.9635 26.436 70.9635 27.396C70.9635 28.372 70.6195 29.244 69.9315 30.012C69.2595 30.764 68.0995 31.372 66.4515 31.836ZM58.0275 27.468V29.7H62.6355C63.6275 29.7 64.3155 29.612 64.6995 29.436C65.0995 29.26 65.2995 28.94 65.2995 28.476C65.2995 28.108 65.0915 27.852 64.6755 27.708C64.2755 27.548 63.5955 27.468 62.6355 27.468H58.0275ZM62.6355 36.108C63.4675 36.108 64.0995 36.076 64.5315 36.012C64.9795 35.932 65.2995 35.804 65.4915 35.628C65.6835 35.436 65.7795 35.18 65.7795 34.86C65.7795 34.444 65.5475 34.148 65.0835 33.972C64.6355 33.78 63.8195 33.684 62.6355 33.684H58.0275V36.108H62.6355ZM89.2168 36.516C89.2168 37.06 89.2808 37.444 89.4088 37.668C89.5368 37.892 89.7928 38.052 90.1768 38.148L90.0808 40.404C89.5688 40.484 89.1208 40.54 88.7368 40.572C88.3688 40.604 87.8728 40.62 87.2488 40.62C85.8728 40.62 84.9608 40.316 84.5128 39.708C84.0648 39.084 83.8408 38.292 83.8408 37.332V36.732C83.3768 38.044 82.6968 39.02 81.8008 39.66C80.9208 40.3 79.7928 40.62 78.4168 40.62C76.8168 40.62 75.6088 40.3 74.7928 39.66C73.9928 39.02 73.5928 38.068 73.5928 36.804C73.5928 35.764 73.9368 34.948 74.6248 34.356C75.3128 33.764 76.3768 33.356 77.8168 33.132C76.6008 32.268 75.3848 31.516 74.1688 30.876C75.1288 29.66 76.2248 28.74 77.4568 28.116C78.6888 27.476 80.1848 27.156 81.9448 27.156C84.4088 27.156 86.2328 27.692 87.4168 28.764C88.6168 29.82 89.2168 31.452 89.2168 33.66V36.516ZM82.4488 31.38C81.6328 31.38 80.9128 31.516 80.2888 31.788C79.6648 32.06 79.1048 32.468 78.6088 33.012C79.5688 32.9 80.7688 32.844 82.2088 32.844C82.8008 32.844 83.2168 32.772 83.4568 32.628C83.6968 32.484 83.8168 32.3 83.8168 32.076C83.8168 31.884 83.6968 31.724 83.4568 31.596C83.2168 31.452 82.8808 31.38 82.4488 31.38ZM79.9288 36.708C80.8248 36.708 81.6328 36.54 82.3528 36.204C83.0728 35.852 83.5688 35.396 83.8408 34.836V34.212C83.4568 34.404 83.0328 34.556 82.5688 34.668C82.1048 34.764 81.5448 34.86 80.8888 34.956L80.0248 35.1C79.1288 35.276 78.6808 35.58 78.6808 36.012C78.6808 36.476 79.0968 36.708 79.9288 36.708ZM107.414 27.396L106.862 28.788C105.342 32.836 103.75 36.74 102.086 40.5C101.222 42.42 99.9739 43.956 98.3419 45.108C96.7099 46.276 94.6619 46.836 92.1979 46.788C91.8939 45.46 91.6379 44.42 91.4299 43.668C91.2379 42.932 90.9819 42.188 90.6619 41.436C91.5419 41.644 92.3659 41.748 93.1339 41.748C94.3819 41.748 95.3739 41.484 96.1099 40.956C95.5339 39.244 94.8539 37.404 94.0699 35.436C93.2859 33.468 92.1499 30.788 90.6619 27.396H96.3499C96.5419 28.196 96.8059 29.124 97.1419 30.18C97.4779 31.236 97.8139 32.252 98.1499 33.228C98.2459 33.532 98.3979 33.996 98.6059 34.62C98.8299 35.228 99.0059 35.74 99.1339 36.156L99.7579 34.26C100.958 30.788 101.67 28.5 101.894 27.396H107.414ZM123.764 36.516C123.764 37.06 123.828 37.444 123.956 37.668C124.084 37.892 124.34 38.052 124.724 38.148L124.628 40.404C124.116 40.484 123.668 40.54 123.284 40.572C122.916 40.604 122.42 40.62 121.796 40.62C120.42 40.62 119.508 40.316 119.06 39.708C118.612 39.084 118.388 38.292 118.388 37.332V36.732C117.924 38.044 117.244 39.02 116.348 39.66C115.468 40.3 114.34 40.62 112.964 40.62C111.364 40.62 110.156 40.3 109.34 39.66C108.54 39.02 108.14 38.068 108.14 36.804C108.14 35.764 108.484 34.948 109.172 34.356C109.86 33.764 110.924 33.356 112.364 33.132C111.148 32.268 109.932 31.516 108.716 30.876C109.676 29.66 110.772 28.74 112.004 28.116C113.236 27.476 114.732 27.156 116.492 27.156C118.956 27.156 120.78 27.692 121.964 28.764C123.164 29.82 123.764 31.452 123.764 33.66V36.516ZM116.996 31.38C116.18 31.38 115.46 31.516 114.836 31.788C114.212 32.06 113.652 32.468 113.156 33.012C114.116 32.9 115.316 32.844 116.756 32.844C117.348 32.844 117.764 32.772 118.004 32.628C118.244 32.484 118.364 32.3 118.364 32.076C118.364 31.884 118.244 31.724 118.004 31.596C117.764 31.452 117.428 31.38 116.996 31.38ZM114.476 36.708C115.372 36.708 116.18 36.54 116.9 36.204C117.62 35.852 118.116 35.396 118.388 34.836V34.212C118.004 34.404 117.58 34.556 117.116 34.668C116.652 34.764 116.092 34.86 115.436 34.956L114.572 35.1C113.676 35.276 113.228 35.58 113.228 36.012C113.228 36.476 113.644 36.708 114.476 36.708ZM137.041 31.692C135.569 31.596 134.225 31.524 133.009 31.476L132.985 34.02C132.985 34.884 133.169 35.564 133.537 36.06C133.921 36.54 134.593 36.78 135.553 36.78C135.921 36.78 136.273 36.748 136.609 36.684C136.545 37.276 136.513 37.876 136.513 38.484C136.513 38.772 136.529 39.428 136.561 40.452C135.857 40.58 135.265 40.66 134.785 40.692C134.305 40.724 133.681 40.74 132.913 40.74C131.041 40.74 129.713 40.292 128.929 39.396C128.161 38.484 127.777 37.22 127.777 35.604L127.801 31.548C127.049 31.58 126.265 31.628 125.449 31.692V27.444C126.281 27.444 126.985 27.18 127.561 26.652C128.137 26.124 128.481 25.492 128.593 24.756H135.121C134.305 25.876 133.401 26.772 132.409 27.444H137.041V31.692ZM138.737 40.5C138.849 37.924 138.905 35.796 138.905 34.116C138.905 32.116 138.841 29.876 138.713 27.396H144.473C144.345 29.78 144.281 32.02 144.281 34.116C144.281 35.876 144.337 38.004 144.449 40.5H138.737ZM156.038 22.836C157.83 22.836 159.422 23.196 160.814 23.916C162.222 24.62 163.31 25.604 164.078 26.868C164.862 28.132 165.254 29.572 165.254 31.188C165.254 34.404 164.358 36.804 162.566 38.388C160.79 39.956 158.39 40.74 155.366 40.74C151.686 40.74 148.782 39.812 146.654 37.956C147.614 36.932 148.494 35.804 149.294 34.572C149.918 35.084 150.806 35.484 151.958 35.772C153.11 36.044 154.158 36.18 155.102 36.18C156.494 36.18 157.662 35.836 158.606 35.148C159.55 34.444 160.126 33.444 160.334 32.148C160.35 32.068 160.358 31.956 160.358 31.812C159.59 32.932 158.574 33.756 157.31 34.284C156.046 34.796 154.758 35.052 153.446 35.052C152.166 35.052 151.006 34.82 149.966 34.356C148.926 33.892 148.11 33.26 147.518 32.46C146.926 31.644 146.63 30.732 146.63 29.724C146.63 28.268 147.038 27.02 147.854 25.98C148.686 24.94 149.814 24.156 151.238 23.628C152.662 23.1 154.262 22.836 156.038 22.836ZM155.798 31.284C156.406 31.284 156.966 31.196 157.478 31.02C158.006 30.828 158.422 30.58 158.726 30.276C159.046 29.972 159.206 29.644 159.206 29.292C159.206 28.748 158.87 28.284 158.198 27.9C157.542 27.516 156.742 27.324 155.798 27.324C154.854 27.324 154.046 27.516 153.374 27.9C152.718 28.284 152.39 28.748 152.39 29.292C152.39 29.852 152.718 30.324 153.374 30.708C154.046 31.092 154.854 31.284 155.798 31.284ZM178.992 28.596C180.256 28.596 181.408 28.86 182.448 29.388C183.488 29.9 184.304 30.596 184.896 31.476C185.504 32.356 185.808 33.3 185.808 34.308C185.808 35.62 185.392 36.764 184.56 37.74C183.728 38.716 182.6 39.46 181.176 39.972C179.752 40.484 178.16 40.74 176.4 40.74C174.608 40.74 173.008 40.388 171.6 39.684C170.208 38.964 169.12 37.972 168.336 36.708C167.568 35.444 167.184 34.004 167.184 32.388C167.184 29.172 168.072 26.78 169.848 25.212C171.64 23.628 174.048 22.836 177.072 22.836C180.752 22.836 183.656 23.764 185.784 25.62C184.824 26.644 183.944 27.772 183.144 29.004C182.504 28.524 181.6 28.14 180.432 27.852C179.28 27.548 178.248 27.396 177.336 27.396C175.944 27.396 174.776 27.748 173.832 28.452C172.888 29.14 172.312 30.132 172.104 31.428C172.088 31.508 172.08 31.62 172.08 31.764C172.848 30.644 173.856 29.836 175.104 29.34C176.368 28.844 177.664 28.596 178.992 28.596ZM176.64 36.18C177.248 36.18 177.816 36.1 178.344 35.94C178.872 35.764 179.288 35.532 179.592 35.244C179.896 34.94 180.048 34.62 180.048 34.284C180.048 33.756 179.712 33.308 179.04 32.94C178.384 32.556 177.584 32.364 176.64 32.364C175.696 32.364 174.888 32.556 174.216 32.94C173.56 33.308 173.232 33.756 173.232 34.284C173.232 34.62 173.384 34.94 173.688 35.244C173.992 35.532 174.408 35.764 174.936 35.94C175.464 36.1 176.032 36.18 176.64 36.18Z" fill="black"/>
<defs>
<filter id="filter0_d_241_71" x="0" y="0" width="49.2146" height="67.4961" filterUnits="userSpaceOnUse" color-interpolation-filters="sRGB">
<feFlood flood-opacity="0" result="BackgroundImageFix"/>
<feColorMatrix in="SourceAlpha" type="matrix" values="0 0 0 0 0 0 0 0 0 0 0 0 0 0 0 0 0 0 127 0" result="hardAlpha"/>
<feOffset dy="4"/>
<feGaussianBlur stdDeviation="2"/>
<feComposite in2="hardAlpha" operator="out"/>
<feColorMatrix type="matrix" values="0 0 0 0 0 0 0 0 0 0 0 0 0 0 0 0 0 0 0.25 0"/>
<feBlend mode="normal" in2="BackgroundImageFix" result="effect1_dropShadow_241_71"/>
<feBlend mode="normal" in="SourceGraphic" in2="effect1_dropShadow_241_71" result="shape"/>
</filter>
</defs>
</svg>
