<svg width="188" height="68" viewBox="0 0 188 68" fill="none" xmlns="http://www.w3.org/2000/svg">
<g filter="url(#filter0_d_443_1638)">
<path d="M4.32967 33.517C1.52985 52.0389 17.2519 58.5539 25.4629 59.4961C31.924 56.9117 38.6543 49.7147 41.2119 46.4393C46.9192 37.0707 45.2949 26.5624 43.7694 22.4793C43.231 24.4176 41.2119 26.1585 40.2696 26.7867C42.7464 16.772 37.1737 10.2301 34.0777 8.211C36.0161 18.8718 33.2701 25.8445 31.6548 27.9982C31.1164 26.1675 27.3923 20.1461 25.5975 17.3643C20.644 10.9031 19.7646 3.09595 19.944 0C14.7751 3.55361 14.47 17.0053 14.9636 23.2869C13.0253 22.3178 12.1817 14.9862 12.0022 11.4416C4.89501 26.4098 7.06667 36.9719 9.0409 40.382C7.85636 40.2743 5.40652 35.7605 4.32967 33.517Z" fill="#16DB65"/>
<path d="M24.6553 1.61528C26.9884 3.09595 31.4125 7.99563 30.4433 15.749C28.9627 15.1657 25.7321 11.5223 24.6553 1.61528Z" fill="#16DB65"/>
</g>
<path d="M6.88281 43.7451C9.60059 45.993 15.3326 50.8634 16.5186 52.362C14.5008 51.9457 9.74883 49.6395 6.88281 43.7451Z" fill="#F8F7F2"/>
<path d="M14.3684 30.2415C13.5036 29.0343 11.7 25.8456 11.4035 22.7485C10.8682 24.4969 10.7117 28.4431 14.3684 30.2415Z" fill="#F8F7F2"/>
<path d="M34.8251 30.2415C35.9369 28.9094 38.2346 25.8206 38.5311 24.1222C38.9017 25.5792 38.6794 28.8428 34.8251 30.2415Z" fill="#F8F7F2"/>
<path d="M39.5332 45.0213L22.5101 27.9982L16.5021 34.0062L33.5252 51.0294L39.5332 45.0213Z" fill="#F8F6F5"/>
<path d="M33.5254 51.0294L31.5227 53.0321L14.4996 36.009L16.5022 34.0063L33.5254 51.0294Z" fill="#A5A4A4"/>
<path d="M21.8025 32.0036C21.8025 31.6124 22.1195 31.2955 22.5106 31.2955C22.9018 31.2955 23.2188 31.6125 23.2188 32.0036C23.2188 32.3947 22.9018 32.7117 22.5106 32.7117C22.1195 32.7117 21.8025 32.3948 21.8025 32.0036Z" fill="#16DB65"/>
<path d="M50.6322 59.2044C49.5398 60.2967 47.7578 60.2593 46.7117 59.1226L37.1135 48.6901L40.1179 45.6858L50.5504 55.284C51.6871 56.33 51.7245 58.1121 50.6322 59.2044Z" fill="#1D1D1D"/>
<path d="M42.4139 51.6943C42.4139 51.3031 42.7309 50.9861 43.122 50.9861C43.5132 50.9861 43.8301 51.3031 43.8301 51.6943C43.8301 52.0854 43.5131 52.4024 43.122 52.4024C42.7309 52.4024 42.4139 52.0854 42.4139 51.6943Z" fill="#D2D5D7"/>
<path d="M46.4197 55.6996C46.4197 55.3085 46.7367 54.9915 47.1278 54.9915C47.5189 54.9915 47.8359 55.3085 47.8359 55.6996C47.8359 56.0908 47.5189 56.4077 47.1278 56.4077C46.7367 56.4077 46.4197 56.0908 46.4197 55.6996Z" fill="#D2D5D7"/>
<path d="M66.4517 31.836C70.0997 31.836 71.9237 32.996 71.9237 35.316C71.9237 36.404 71.6757 37.332 71.1797 38.1C70.6837 38.852 69.7957 39.444 68.5157 39.876C67.2357 40.292 65.4597 40.5 63.1877 40.5H52.3877C52.5157 37.396 52.5797 34.492 52.5797 31.788C52.5797 29.084 52.5157 26.18 52.3877 23.076H58.0277V23.1H63.1397C65.1237 23.1 66.6837 23.268 67.8197 23.604C68.9717 23.924 69.7797 24.396 70.2437 25.02C70.7237 25.644 70.9637 26.436 70.9637 27.396C70.9637 28.372 70.6197 29.244 69.9317 30.012C69.2597 30.764 68.0997 31.372 66.4517 31.836ZM58.0277 27.468V29.7H62.6357C63.6277 29.7 64.3157 29.612 64.6997 29.436C65.0997 29.26 65.2997 28.94 65.2997 28.476C65.2997 28.108 65.0917 27.852 64.6757 27.708C64.2757 27.548 63.5957 27.468 62.6357 27.468H58.0277ZM62.6357 36.108C63.4677 36.108 64.0997 36.076 64.5317 36.012C64.9797 35.932 65.2997 35.804 65.4917 35.628C65.6837 35.436 65.7797 35.18 65.7797 34.86C65.7797 34.444 65.5477 34.148 65.0837 33.972C64.6357 33.78 63.8197 33.684 62.6357 33.684H58.0277V36.108H62.6357ZM89.217 36.516C89.217 37.06 89.281 37.444 89.409 37.668C89.537 37.892 89.793 38.052 90.177 38.148L90.081 40.404C89.569 40.484 89.121 40.54 88.737 40.572C88.369 40.604 87.873 40.62 87.249 40.62C85.873 40.62 84.961 40.316 84.513 39.708C84.065 39.084 83.841 38.292 83.841 37.332V36.732C83.377 38.044 82.697 39.02 81.801 39.66C80.921 40.3 79.793 40.62 78.417 40.62C76.817 40.62 75.609 40.3 74.793 39.66C73.993 39.02 73.593 38.068 73.593 36.804C73.593 35.764 73.937 34.948 74.625 34.356C75.313 33.764 76.377 33.356 77.817 33.132C76.601 32.268 75.385 31.516 74.169 30.876C75.129 29.66 76.225 28.74 77.457 28.116C78.689 27.476 80.185 27.156 81.945 27.156C84.409 27.156 86.233 27.692 87.417 28.764C88.617 29.82 89.217 31.452 89.217 33.66V36.516ZM82.449 31.38C81.633 31.38 80.913 31.516 80.289 31.788C79.665 32.06 79.105 32.468 78.609 33.012C79.569 32.9 80.769 32.844 82.209 32.844C82.801 32.844 83.217 32.772 83.457 32.628C83.697 32.484 83.817 32.3 83.817 32.076C83.817 31.884 83.697 31.724 83.457 31.596C83.217 31.452 82.881 31.38 82.449 31.38ZM79.929 36.708C80.825 36.708 81.633 36.54 82.353 36.204C83.073 35.852 83.569 35.396 83.841 34.836V34.212C83.457 34.404 83.033 34.556 82.569 34.668C82.105 34.764 81.545 34.86 80.889 34.956L80.025 35.1C79.129 35.276 78.681 35.58 78.681 36.012C78.681 36.476 79.097 36.708 79.929 36.708ZM107.414 27.396L106.862 28.788C105.342 32.836 103.75 36.74 102.086 40.5C101.222 42.42 99.9741 43.956 98.3421 45.108C96.7101 46.276 94.6621 46.836 92.1981 46.788C91.8941 45.46 91.6381 44.42 91.4301 43.668C91.2381 42.932 90.9821 42.188 90.6621 41.436C91.5421 41.644 92.3661 41.748 93.1341 41.748C94.3821 41.748 95.3741 41.484 96.1101 40.956C95.5341 39.244 94.8541 37.404 94.0701 35.436C93.2861 33.468 92.1501 30.788 90.6621 27.396H96.3501C96.5421 28.196 96.8061 29.124 97.1421 30.18C97.4781 31.236 97.8141 32.252 98.1501 33.228C98.2461 33.532 98.3981 33.996 98.6061 34.62C98.8301 35.228 99.0061 35.74 99.1341 36.156L99.7581 34.26C100.958 30.788 101.67 28.5 101.894 27.396H107.414ZM123.764 36.516C123.764 37.06 123.828 37.444 123.956 37.668C124.084 37.892 124.34 38.052 124.724 38.148L124.628 40.404C124.116 40.484 123.668 40.54 123.284 40.572C122.916 40.604 122.42 40.62 121.796 40.62C120.42 40.62 119.508 40.316 119.06 39.708C118.612 39.084 118.388 38.292 118.388 37.332V36.732C117.924 38.044 117.244 39.02 116.348 39.66C115.468 40.3 114.34 40.62 112.964 40.62C111.364 40.62 110.156 40.3 109.34 39.66C108.54 39.02 108.14 38.068 108.14 36.804C108.14 35.764 108.484 34.948 109.172 34.356C109.86 33.764 110.924 33.356 112.364 33.132C111.148 32.268 109.932 31.516 108.716 30.876C109.676 29.66 110.772 28.74 112.004 28.116C113.236 27.476 114.732 27.156 116.492 27.156C118.956 27.156 120.78 27.692 121.964 28.764C123.164 29.82 123.764 31.452 123.764 33.66V36.516ZM116.996 31.38C116.18 31.38 115.46 31.516 114.836 31.788C114.212 32.06 113.652 32.468 113.156 33.012C114.116 32.9 115.316 32.844 116.756 32.844C117.348 32.844 117.764 32.772 118.004 32.628C118.244 32.484 118.364 32.3 118.364 32.076C118.364 31.884 118.244 31.724 118.004 31.596C117.764 31.452 117.428 31.38 116.996 31.38ZM114.476 36.708C115.372 36.708 116.18 36.54 116.9 36.204C117.62 35.852 118.116 35.396 118.388 34.836V34.212C118.004 34.404 117.58 34.556 117.116 34.668C116.652 34.764 116.092 34.86 115.436 34.956L114.572 35.1C113.676 35.276 113.228 35.58 113.228 36.012C113.228 36.476 113.644 36.708 114.476 36.708ZM137.041 31.692C135.569 31.596 134.225 31.524 133.009 31.476L132.985 34.02C132.985 34.884 133.169 35.564 133.537 36.06C133.921 36.54 134.593 36.78 135.553 36.78C135.921 36.78 136.273 36.748 136.609 36.684C136.545 37.276 136.513 37.876 136.513 38.484C136.513 38.772 136.529 39.428 136.561 40.452C135.857 40.58 135.265 40.66 134.785 40.692C134.305 40.724 133.681 40.74 132.913 40.74C131.041 40.74 129.713 40.292 128.929 39.396C128.161 38.484 127.777 37.22 127.777 35.604L127.801 31.548C127.049 31.58 126.265 31.628 125.449 31.692V27.444C126.281 27.444 126.985 27.18 127.561 26.652C128.137 26.124 128.481 25.492 128.593 24.756H135.121C134.305 25.876 133.401 26.772 132.409 27.444H137.041V31.692ZM138.738 40.5C138.85 37.924 138.906 35.796 138.906 34.116C138.906 32.116 138.842 29.876 138.714 27.396H144.474C144.346 29.78 144.282 32.02 144.282 34.116C144.282 35.876 144.338 38.004 144.45 40.5H138.738ZM156.038 22.836C157.83 22.836 159.422 23.196 160.814 23.916C162.222 24.62 163.31 25.604 164.078 26.868C164.862 28.132 165.254 29.572 165.254 31.188C165.254 34.404 164.358 36.804 162.566 38.388C160.79 39.956 158.39 40.74 155.366 40.74C151.686 40.74 148.782 39.812 146.654 37.956C147.614 36.932 148.494 35.804 149.294 34.572C149.918 35.084 150.806 35.484 151.958 35.772C153.11 36.044 154.158 36.18 155.102 36.18C156.494 36.18 157.662 35.836 158.606 35.148C159.55 34.444 160.126 33.444 160.334 32.148C160.35 32.068 160.358 31.956 160.358 31.812C159.59 32.932 158.574 33.756 157.31 34.284C156.046 34.796 154.758 35.052 153.446 35.052C152.166 35.052 151.006 34.82 149.966 34.356C148.926 33.892 148.11 33.26 147.518 32.46C146.926 31.644 146.63 30.732 146.63 29.724C146.63 28.268 147.038 27.02 147.854 25.98C148.686 24.94 149.814 24.156 151.238 23.628C152.662 23.1 154.262 22.836 156.038 22.836ZM155.798 31.284C156.406 31.284 156.966 31.196 157.478 31.02C158.006 30.828 158.422 30.58 158.726 30.276C159.046 29.972 159.206 29.644 159.206 29.292C159.206 28.748 158.87 28.284 158.198 27.9C157.542 27.516 156.742 27.324 155.798 27.324C154.854 27.324 154.046 27.516 153.374 27.9C152.718 28.284 152.39 28.748 152.39 29.292C152.39 29.852 152.718 30.324 153.374 30.708C154.046 31.092 154.854 31.284 155.798 31.284ZM178.993 28.596C180.257 28.596 181.409 28.86 182.449 29.388C183.489 29.9 184.305 30.596 184.897 31.476C185.505 32.356 185.809 33.3 185.809 34.308C185.809 35.62 185.393 36.764 184.561 37.74C183.729 38.716 182.601 39.46 181.177 39.972C179.753 40.484 178.161 40.74 176.401 40.74C174.609 40.74 173.009 40.388 171.601 39.684C170.209 38.964 169.121 37.972 168.337 36.708C167.569 35.444 167.185 34.004 167.185 32.388C167.185 29.172 168.073 26.78 169.849 25.212C171.641 23.628 174.049 22.836 177.073 22.836C180.753 22.836 183.657 23.764 185.785 25.62C184.825 26.644 183.945 27.772 183.145 29.004C182.505 28.524 181.601 28.14 180.433 27.852C179.281 27.548 178.249 27.396 177.337 27.396C175.945 27.396 174.777 27.748 173.833 28.452C172.889 29.14 172.313 30.132 172.105 31.428C172.089 31.508 172.081 31.62 172.081 31.764C172.849 30.644 173.857 29.836 175.105 29.34C176.369 28.844 177.665 28.596 178.993 28.596ZM176.641 36.18C177.249 36.18 177.817 36.1 178.345 35.94C178.873 35.764 179.289 35.532 179.593 35.244C179.897 34.94 180.049 34.62 180.049 34.284C180.049 33.756 179.713 33.308 179.041 32.94C178.385 32.556 177.585 32.364 176.641 32.364C175.697 32.364 174.889 32.556 174.217 32.94C173.561 33.308 173.233 33.756 173.233 34.284C173.233 34.62 173.385 34.94 173.689 35.244C173.993 35.532 174.409 35.764 174.937 35.94C175.465 36.1 176.033 36.18 176.641 36.18Z" fill="white"/>
<defs>
<filter id="filter0_d_443_1638" x="0" y="0" width="49.2148" height="67.4961" filterUnits="userSpaceOnUse" color-interpolation-filters="sRGB">
<feFlood flood-opacity="0" result="BackgroundImageFix"/>
<feColorMatrix in="SourceAlpha" type="matrix" values="0 0 0 0 0 0 0 0 0 0 0 0 0 0 0 0 0 0 127 0" result="hardAlpha"/>
<feOffset dy="4"/>
<feGaussianBlur stdDeviation="2"/>
<feComposite in2="hardAlpha" operator="out"/>
<feColorMatrix type="matrix" values="0 0 0 0 0 0 0 0 0 0 0 0 0 0 0 0 0 0 0.25 0"/>
<feBlend mode="normal" in2="BackgroundImageFix" result="effect1_dropShadow_443_1638"/>
<feBlend mode="normal" in="SourceGraphic" in2="effect1_dropShadow_443_1638" result="shape"/>
</filter>
</defs>
</svg>
